<?xml version="1.0" encoding="UTF-8"?>
<svg xmlns="http://www.w3.org/2000/svg" viewBox="0 0 64 64" width="512" height="512"><g id="database-file-data-money-currency"><ellipse cx="32" cy="11" rx="24" ry="8" style="fill:#ffde55"/><path d="M56,11V53a4.006,4.006,0,0,1-1.75,3C50.69,58.93,42.06,61,32,61S13.31,58.93,9.75,56A4.006,4.006,0,0,1,8,53V11c0,4.42,10.75,8,24,8S56,15.42,56,11Z" style="fill:#c0ab91"/><path d="M56,11c0,4.42-10.75,8-24,8S8,15.42,8,11a2.505,2.505,0,0,1,.06-.55C12.37,12.59,19.69,14,28,14c12.69,0,23.09-3.29,23.94-7.45C54.5,7.82,56,9.35,56,11Z" style="fill:#ebbf00"/><path d="M56,11V53a4.006,4.006,0,0,1-1.75,3C50.69,58.93,42.06,61,32,61S13.31,58.93,9.75,56A4.006,4.006,0,0,1,8,53v-.59C12.3,54.58,19.66,56,28,56c10.06,0,18.69-2.07,22.25-5A4.006,4.006,0,0,0,52,48V15.42C54.53,14.16,56,12.64,56,11Z" style="fill:#a78966"/><circle cx="32" cy="40" r="15" style="fill:#ffde55"/><path d="M47,40a15,15,0,0,1-27.42,8.42A15.007,15.007,0,0,0,40.42,27.58,15.016,15.016,0,0,1,47,40Z" style="fill:#ebbf00"/><path d="M32,2C19.88,2,7,5.15,7,11V53a4.875,4.875,0,0,0,2.11,3.77C12.97,59.95,21.96,62,32,62s19.03-2.05,22.88-5.22A4.891,4.891,0,0,0,57,53V11C57,5.15,44.12,2,32,2ZM9,28.67c.04.03.07.07.11.1,1.85,1.52,4.87,2.79,8.77,3.72A15.836,15.836,0,0,0,16,40a16.008,16.008,0,0,0,.87,5.16,18.265,18.265,0,0,1-6.49-2.94A3.192,3.192,0,0,1,9,40ZM55,53a3.212,3.212,0,0,1-1.39,2.23C50.15,58.08,41.46,60,32,60s-18.15-1.92-21.62-4.78A3.192,3.192,0,0,1,9,53V43.67c.04.03.07.07.11.1,1.85,1.52,4.88,2.8,8.76,3.72a15.986,15.986,0,0,0,28.26,0c3.88-.92,6.91-2.2,8.75-3.71.05-.04.08-.08.12-.11ZM18,40A14,14,0,1,1,32,54,14.015,14.015,0,0,1,18,40Zm37,0a3.233,3.233,0,0,1-1.38,2.23,18.451,18.451,0,0,1-6.49,2.93A16.008,16.008,0,0,0,48,40a15.836,15.836,0,0,0-1.88-7.51c3.9-.93,6.92-2.2,8.76-3.71.05-.04.08-.08.12-.11Zm0-15a3.212,3.212,0,0,1-1.39,2.23c-1.68,1.39-4.74,2.6-8.62,3.46a15.956,15.956,0,0,0-25.98,0c-3.88-.86-6.94-2.07-8.63-3.47A3.192,3.192,0,0,1,9,25V14.7C13.08,18.16,22.76,20,32,20s18.92-1.84,23-5.3ZM32,18C18.45,18,9,14.31,9,11s9.45-7,23-7,23,3.69,23,7S45.55,18,32,18Z"/><path d="M30,34h4a2,2,0,0,1,2,2h2a4,4,0,0,0-4-4H33V30H31v2H30a4,4,0,0,0-4,4v1a4,4,0,0,0,4,4h4a2,2,0,0,1,2,2v1a2,2,0,0,1-2,2H30a2,2,0,0,1-2-2H26a4,4,0,0,0,4,4h1v2h2V48h1a4,4,0,0,0,4-4V43a4,4,0,0,0-4-4H30a2,2,0,0,1-2-2V36A2,2,0,0,1,30,34Z"/></g></svg>
